<svg width="20" height="20" viewBox="0 0 20 20" fill="none" xmlns="http://www.w3.org/2000/svg">
<path d="M4 7C4 8.5913 4.63214 10.1174 5.75736 11.2426C6.88258 12.3679 8.4087 13 10 13C11.5913 13 13.1174 12.3679 14.2426 11.2426C15.3679 10.1174 16 8.5913 16 7C16 5.4087 15.3679 3.88258 14.2426 2.75736C13.1174 1.63214 11.5913 1 10 1C8.4087 1 6.88258 1.63214 5.75736 2.75736C4.63214 3.88258 4 5.4087 4 7Z" stroke="#F0F8FF" stroke-width="2" stroke-linecap="round" stroke-linejoin="round"/>
<path d="M9.99998 13L13.4 18.89L14.998 15.657L18.596 15.889L15.196 10M4.80198 10L1.40198 15.89L4.99998 15.657L6.59798 18.889L9.99798 13" stroke="#F0F8FF" stroke-width="2" stroke-linecap="round" stroke-linejoin="round"/>
</svg>
