<svg width="22" height="22" viewBox="0 0 22 22" fill="none" xmlns="http://www.w3.org/2000/svg">
<path d="M16.2422 13.5638C15.8889 14.7192 15.23 15.6502 14.2656 16.3568C13.3012 17.0634 12.2127 17.4167 11 17.4167C9.78733 17.4167 8.69878 17.0634 7.73438 16.3568C6.76997 15.6502 6.11111 14.7192 5.75781 13.5638C5.68142 13.3251 5.70052 13.0935 5.8151 12.8691C5.92969 12.6447 6.11111 12.4944 6.35938 12.418C6.59809 12.3416 6.82964 12.3607 7.05404 12.4753C7.27843 12.5898 7.42882 12.7713 7.50521 13.0195C7.74392 13.7834 8.18555 14.4017 8.83008 14.8743C9.47461 15.347 10.1979 15.5833 11 15.5833C11.8021 15.5833 12.5254 15.347 13.1699 14.8743C13.8145 14.4017 14.2561 13.7834 14.4948 13.0195C14.5712 12.7713 14.724 12.5898 14.9531 12.4753C15.1823 12.3607 15.4162 12.3416 15.6549 12.418C15.8937 12.4944 16.0703 12.6447 16.1849 12.8691C16.2995 13.0935 16.3186 13.3251 16.2422 13.5638ZM9.16667 7.33333C9.16667 7.83941 8.98763 8.27148 8.62956 8.62956C8.27148 8.98763 7.83941 9.16667 7.33333 9.16667C6.82726 9.16667 6.39518 8.98763 6.03711 8.62956C5.67904 8.27148 5.5 7.83941 5.5 7.33333C5.5 6.82726 5.67904 6.39518 6.03711 6.03711C6.39518 5.67904 6.82726 5.5 7.33333 5.5C7.83941 5.5 8.27148 5.67904 8.62956 6.03711C8.98763 6.39518 9.16667 6.82726 9.16667 7.33333ZM16.5 7.33333C16.5 7.83941 16.321 8.27148 15.9629 8.62956C15.6048 8.98763 15.1727 9.16667 14.6667 9.16667C14.1606 9.16667 13.7285 8.98763 13.3704 8.62956C13.0124 8.27148 12.8333 7.83941 12.8333 7.33333C12.8333 6.82726 13.0124 6.39518 13.3704 6.03711C13.7285 5.67904 14.1606 5.5 14.6667 5.5C15.1727 5.5 15.6048 5.67904 15.9629 6.03711C16.321 6.39518 16.5 6.82726 16.5 7.33333ZM20.1667 11C20.1667 9.75868 19.9232 8.57227 19.4362 7.44076C18.9492 6.30925 18.2975 5.33529 17.4811 4.51888C16.6647 3.70247 15.6908 3.05078 14.5592 2.5638C13.4277 2.07682 12.2413 1.83333 11 1.83333C9.75868 1.83333 8.57227 2.07682 7.44076 2.5638C6.30925 3.05078 5.33529 3.70247 4.51888 4.51888C3.70247 5.33529 3.05078 6.30925 2.5638 7.44076C2.07682 8.57227 1.83333 9.75868 1.83333 11C1.83333 12.2413 2.07682 13.4277 2.5638 14.5592C3.05078 15.6908 3.70247 16.6647 4.51888 17.4811C5.33529 18.2975 6.30925 18.9492 7.44076 19.4362C8.57227 19.9232 9.75868 20.1667 11 20.1667C12.2413 20.1667 13.4277 19.9232 14.5592 19.4362C15.6908 18.9492 16.6647 18.2975 17.4811 17.4811C18.2975 16.6647 18.9492 15.6908 19.4362 14.5592C19.9232 13.4277 20.1667 12.2413 20.1667 11ZM22 11C22 12.9957 21.5082 14.8362 20.5247 16.5215C19.5412 18.2068 18.2068 19.5412 16.5215 20.5247C14.8362 21.5082 12.9957 22 11 22C9.00434 22 7.16385 21.5082 5.47852 20.5247C3.79319 19.5412 2.45877 18.2068 1.47526 16.5215C0.491754 14.8362 0 12.9957 0 11C0 9.00434 0.491754 7.16385 1.47526 5.47852C2.45877 3.79319 3.79319 2.45877 5.47852 1.47526C7.16385 0.491754 9.00434 0 11 0C12.9957 0 14.8362 0.491754 16.5215 1.47526C18.2068 2.45877 19.5412 3.79319 20.5247 5.47852C21.5082 7.16385 22 9.00434 22 11Z" fill="#F0F8FF"/>
</svg>
