<svg width="20" height="20" viewBox="0 0 20 20" fill="none" xmlns="http://www.w3.org/2000/svg">
<path d="M16.4167 2.66668H14.5833V1.75001C14.5833 1.5069 14.4868 1.27374 14.3148 1.10183C14.1429 0.929921 13.9098 0.833344 13.6667 0.833344C13.4235 0.833344 13.1904 0.929921 13.0185 1.10183C12.8466 1.27374 12.75 1.5069 12.75 1.75001V2.66668H7.24999V1.75001C7.24999 1.5069 7.15342 1.27374 6.98151 1.10183C6.8096 0.929921 6.57644 0.833344 6.33333 0.833344C6.09021 0.833344 5.85706 0.929921 5.68515 1.10183C5.51324 1.27374 5.41666 1.5069 5.41666 1.75001V2.66668H3.58333C2.85398 2.66668 2.15451 2.95641 1.63878 3.47213C1.12306 3.98786 0.833328 4.68733 0.833328 5.41668V16.4167C0.833328 17.146 1.12306 17.8455 1.63878 18.3612C2.15451 18.8769 2.85398 19.1667 3.58333 19.1667H16.4167C17.146 19.1667 17.8455 18.8769 18.3612 18.3612C18.8769 17.8455 19.1667 17.146 19.1667 16.4167V5.41668C19.1667 4.68733 18.8769 3.98786 18.3612 3.47213C17.8455 2.95641 17.146 2.66668 16.4167 2.66668ZM17.3333 16.4167C17.3333 16.6598 17.2368 16.893 17.0648 17.0649C16.8929 17.2368 16.6598 17.3333 16.4167 17.3333H3.58333C3.34021 17.3333 3.10706 17.2368 2.93515 17.0649C2.76324 16.893 2.66666 16.6598 2.66666 16.4167V10H17.3333V16.4167ZM17.3333 8.16668H2.66666V5.41668C2.66666 5.17356 2.76324 4.9404 2.93515 4.7685C3.10706 4.59659 3.34021 4.50001 3.58333 4.50001H5.41666V5.41668C5.41666 5.65979 5.51324 5.89295 5.68515 6.06486C5.85706 6.23677 6.09021 6.33334 6.33333 6.33334C6.57644 6.33334 6.8096 6.23677 6.98151 6.06486C7.15342 5.89295 7.24999 5.65979 7.24999 5.41668V4.50001H12.75V5.41668C12.75 5.65979 12.8466 5.89295 13.0185 6.06486C13.1904 6.23677 13.4235 6.33334 13.6667 6.33334C13.9098 6.33334 14.1429 6.23677 14.3148 6.06486C14.4868 5.89295 14.5833 5.65979 14.5833 5.41668V4.50001H16.4167C16.6598 4.50001 16.8929 4.59659 17.0648 4.7685C17.2368 4.9404 17.3333 5.17356 17.3333 5.41668V8.16668Z" fill="#F0F8FF"/>
</svg>
