<svg width="96" height="87" viewBox="0 0 96 87" fill="none" xmlns="http://www.w3.org/2000/svg">
<path d="M84.4437 43.9333C91.6668 55.9023 73.2903 55.0263 59.7763 63.1818C46.2622 71.3373 31.7347 92.0706 24.5116 80.1016C17.2885 68.1326 18.2658 30.5577 31.7798 22.4022C45.2938 14.2466 77.2206 31.9643 84.4437 43.9333Z" fill="#D0338A"/>
<path d="M84.4437 43.9333C91.6668 55.9023 73.2903 55.0263 59.7763 63.1818C46.2622 71.3373 31.7347 92.0706 24.5116 80.1016C17.2885 68.1326 18.2658 30.5577 31.7798 22.4022C45.2938 14.2466 77.2206 31.9643 84.4437 43.9333Z" fill="#D0338A"/>
<path d="M36.8622 45.5064L37.3869 46.376L33.0016 49.0225L32.5519 48.3813L32.6765 42.7571L33.5586 42.2247L33.5818 44.4178L33.5554 47.502L36.8622 45.5064ZM33.8053 42.0759L37.4786 48.1627L36.3708 48.8313L32.6974 42.7444L33.8053 42.0759ZM40.7445 41.3271L41.3627 42.3513C41.6452 42.8195 41.8392 43.248 41.9446 43.6369C42.05 44.0257 42.0774 44.3799 42.0269 44.6993C41.9746 45.016 41.8548 45.2993 41.6673 45.5494C41.4781 45.7966 41.2316 46.0119 40.9278 46.1952C40.6854 46.3415 40.4411 46.4471 40.1951 46.512C39.9474 46.574 39.7004 46.59 39.4541 46.5599C39.2089 46.5254 38.9642 46.4411 38.7199 46.3072C38.4784 46.1716 38.239 45.9796 38.0016 45.7313C37.7671 45.4812 37.5371 45.1694 37.3117 44.796L36.6936 43.7717C36.411 43.3035 36.2179 42.8764 36.1142 42.4903C36.0133 42.1026 35.9889 41.7504 36.0412 41.4337C36.0934 41.1171 36.2149 40.8365 36.4058 40.592C36.595 40.3448 36.8414 40.1295 37.1452 39.9462C37.3905 39.7982 37.6347 39.6926 37.878 39.6295C38.124 39.5646 38.3688 39.5481 38.6122 39.5798C38.8568 39.6071 39.0999 39.6886 39.3414 39.8242C39.5812 39.957 39.8184 40.1484 40.053 40.3985C40.2886 40.6441 40.5192 40.9536 40.7445 41.3271ZM40.3498 43.1678L39.5475 41.8384C39.4063 41.6043 39.2695 41.4093 39.1374 41.2533C39.0063 41.0928 38.8787 40.9664 38.7546 40.8741C38.6304 40.7817 38.508 40.7206 38.3873 40.6908C38.265 40.6582 38.1441 40.6532 38.0247 40.6758C37.9053 40.6985 37.787 40.7451 37.67 40.8157C37.5251 40.9032 37.4131 41.0107 37.3342 41.1382C37.2535 41.2629 37.2112 41.4101 37.2072 41.5798C37.2032 41.7495 37.2416 41.9487 37.3226 42.1774C37.4047 42.4016 37.5332 42.6586 37.7081 42.9485L38.5104 44.2779C38.6517 44.512 38.7878 44.7093 38.9189 44.8697C39.0527 45.0285 39.1826 45.1555 39.3084 45.2506C39.437 45.3441 39.562 45.4093 39.6832 45.4464C39.8056 45.479 39.9273 45.4854 40.0484 45.4656C40.1678 45.4429 40.286 45.3963 40.4031 45.3257C40.5508 45.2365 40.6627 45.1291 40.7389 45.0032C40.8178 44.8758 40.8585 44.7258 40.8608 44.5533C40.8615 44.378 40.82 44.1768 40.7362 43.9498C40.6535 43.7183 40.5247 43.4577 40.3498 43.1678ZM45.7151 38.6012L46.3079 39.5836L42.1358 42.1014L41.5429 41.119L45.7151 38.6012ZM43.1482 37.8633L45.8225 42.2946L44.7648 42.9329L42.0905 38.5016L43.1482 37.8633ZM42.8692 59.401L41.3015 60.3471L40.7566 59.4441L42.3243 58.498C42.5807 58.3433 42.7631 58.1762 42.8715 57.9967C42.981 57.8128 43.0288 57.6242 43.0149 57.4311C42.9994 57.2352 42.9335 57.0411 42.8175 56.8488C42.7048 56.6621 42.5621 56.5106 42.3893 56.3943C42.2165 56.2781 42.019 56.2186 41.7968 56.2158C41.5773 56.2113 41.3394 56.2865 41.083 56.4412L39.8916 57.1603L43.0175 62.3399L41.8678 63.0337L38.1945 56.9469L40.5356 55.534C41.0094 55.2481 41.4648 55.0892 41.9018 55.0574C42.34 55.0211 42.7368 55.0991 43.0924 55.2914C43.449 55.4791 43.7417 55.7625 43.9705 56.1416C44.2076 56.5345 44.3228 56.927 44.316 57.3189C44.3119 57.7092 44.1876 58.0827 43.9428 58.4395C43.7009 58.7946 43.343 59.1151 42.8692 59.401ZM46.2089 55.5036L48.3811 59.103L47.2774 59.7691L44.5476 55.2458L45.5928 54.615L46.2089 55.5036ZM47.009 53.7204L47.6129 54.7589C47.5449 54.7848 47.4702 54.8185 47.3888 54.86C47.3102 54.8998 47.2374 54.9399 47.1705 54.9803C47.0005 55.0829 46.8657 55.1966 46.7661 55.3213C46.6648 55.4433 46.597 55.5735 46.5628 55.7121C46.5313 55.8489 46.5311 55.9935 46.5622 56.1458C46.5916 56.2954 46.6506 56.4499 46.7393 56.6093L46.4833 56.7238C46.3101 56.4368 46.1787 56.153 46.0892 55.8724C45.9997 55.5918 45.9552 55.3259 45.9557 55.0747C45.9562 54.8235 46.0097 54.5972 46.1164 54.396C46.2242 54.1903 46.3882 54.021 46.6083 53.8881C46.6697 53.8511 46.7385 53.8171 46.8149 53.7862C46.8924 53.7509 46.9571 53.7289 47.009 53.7204ZM48.712 55.8807L48.659 55.7929C48.4588 55.4613 48.322 55.1275 48.2486 54.7916C48.1735 54.453 48.1643 54.1258 48.221 53.8103C48.2777 53.4947 48.4025 53.2007 48.5955 52.9284C48.7869 52.6532 49.0498 52.4147 49.3842 52.2129C49.7242 52.0077 50.0606 51.8846 50.3932 51.8435C50.7269 51.798 51.0466 51.8237 51.3522 51.9206C51.6578 52.0175 51.9429 52.1781 52.2076 52.4024C52.4705 52.624 52.7021 52.9005 52.9022 53.2322L52.9552 53.32C53.1537 53.6489 53.2905 53.9826 53.3656 54.3213C53.439 54.6572 53.4482 54.9843 53.3932 55.3027C53.3365 55.6182 53.2117 55.9122 53.0186 56.1846C52.8256 56.4569 52.5605 56.6949 52.2233 56.8984C51.8888 57.1002 51.5547 57.2239 51.221 57.2694C50.8873 57.3149 50.5676 57.2892 50.262 57.1923C49.9547 57.0926 49.6696 56.932 49.4066 56.7105C49.142 56.4862 48.9104 56.2096 48.712 55.8807ZM49.7626 55.1269L49.8156 55.2147C49.935 55.4126 50.0664 55.5861 50.2097 55.7354C50.353 55.8846 50.5046 56.0004 50.6645 56.0826C50.8243 56.1648 50.9911 56.2048 51.1647 56.2027C51.3394 56.1961 51.5174 56.1382 51.6985 56.0288C51.8769 55.9212 52.0083 55.7925 52.0928 55.6426C52.1756 55.49 52.2178 55.3238 52.2196 55.1441C52.2242 54.9626 52.1938 54.7737 52.1286 54.5774C52.0633 54.381 51.971 54.1839 51.8515 53.986L51.7986 53.8982C51.6808 53.7032 51.5512 53.5324 51.4095 53.3859C51.2662 53.2367 51.1133 53.1218 50.9506 53.0412C50.789 52.9562 50.6201 52.9156 50.4437 52.9194C50.2684 52.9188 50.0901 52.9731 49.909 53.0824C49.7306 53.1901 49.6009 53.3216 49.5198 53.477C49.437 53.6296 49.3955 53.7972 49.3954 53.9798C49.3937 54.1595 49.4254 54.3476 49.4907 54.5439C49.5543 54.7375 49.6449 54.9318 49.7626 55.1269ZM52.4196 50.4951L53.5316 49.8241L56.4632 54.6818C56.6566 55.0023 56.7621 55.3094 56.7796 55.603C56.7999 55.8949 56.7358 56.1636 56.5874 56.4091C56.4389 56.6545 56.2073 56.8723 55.8923 57.0623C55.7948 57.1212 55.6939 57.1745 55.5896 57.2222C55.4853 57.2699 55.3782 57.3098 55.2684 57.342L54.7579 56.4866C54.8259 56.4607 54.8937 56.4313 54.9611 56.3982C55.0303 56.3678 55.0969 56.3333 55.161 56.2946C55.2808 56.2223 55.3686 56.1409 55.4241 56.0503C55.4825 55.958 55.5057 55.8547 55.4937 55.7403C55.4845 55.6242 55.437 55.4951 55.3512 55.3529L52.4196 50.4951ZM51.6136 49.3676C51.5144 49.2031 51.4877 49.0329 51.5336 48.8569C51.5823 48.6793 51.7028 48.5324 51.8951 48.4164C52.0874 48.3003 52.2721 48.263 52.4491 48.3044C52.629 48.3442 52.7686 48.4463 52.8678 48.6107C52.9653 48.7723 52.9898 48.942 52.9411 49.1196C52.8952 49.2956 52.7761 49.4416 52.5838 49.5577C52.3915 49.6737 52.2054 49.7119 52.0256 49.6722C51.8485 49.6307 51.7112 49.5292 51.6136 49.3676ZM59.3678 52.5868C59.025 52.7936 58.6834 52.9237 58.343 52.9771C58.0026 53.0304 57.6765 53.0162 57.3648 52.9344C57.0542 52.8481 56.7674 52.7037 56.5045 52.5011C56.2427 52.2941 56.0193 52.0373 55.8343 51.7308L55.7334 51.5636C55.5231 51.2152 55.3824 50.8686 55.3112 50.5237C55.2383 50.1761 55.2316 49.8437 55.291 49.5265C55.3505 49.2092 55.4748 48.9175 55.664 48.6513C55.8531 48.385 56.1023 48.1586 56.4117 47.9719C56.7322 47.7785 57.0479 47.6621 57.3587 47.6228C57.6679 47.5807 57.9636 47.6076 58.2457 47.7034C58.5279 47.7993 58.7932 47.9585 59.0417 48.1812C59.2884 48.4011 59.511 48.6755 59.7095 49.0043L59.9895 49.4684L56.4444 51.6078L55.9853 50.8469L58.4434 49.3635L58.393 49.2799C58.2814 49.1076 58.1513 48.9676 58.0025 48.8596C57.8521 48.7489 57.6867 48.6891 57.5063 48.68C57.3243 48.6682 57.1315 48.7237 56.9281 48.8465C56.7637 48.9457 56.642 49.0686 56.5631 49.215C56.4853 49.357 56.4455 49.5179 56.4437 49.6977C56.4431 49.873 56.4771 50.0616 56.5457 50.2635C56.6143 50.4654 56.7142 50.6751 56.8454 50.8925L56.9463 51.0597C57.0607 51.2492 57.1917 51.4096 57.3395 51.541C57.49 51.6707 57.6515 51.7652 57.8242 51.8245C57.998 51.8793 58.1761 51.8973 58.3586 51.8784C58.5422 51.855 58.726 51.7878 58.9099 51.6768C59.1412 51.5372 59.3234 51.3665 59.4563 51.1646C59.5903 50.9583 59.6731 50.7239 59.7049 50.4614L60.609 50.7028C60.5984 50.8993 60.5509 51.1105 60.4666 51.3362C60.3851 51.5603 60.2559 51.7809 60.0789 51.9979C59.9003 52.2122 59.6632 52.4085 59.3678 52.5868ZM63.2744 49.0429C63.4305 48.9487 63.5513 48.834 63.637 48.6987C63.7226 48.5634 63.768 48.4181 63.7732 48.2629C63.7811 48.106 63.7433 47.952 63.6598 47.8009L64.7007 47.1727C64.8802 47.4827 64.9594 47.8093 64.9385 48.1527C64.9177 48.4961 64.8107 48.823 64.6178 49.1333C64.426 49.4391 64.1587 49.6955 63.8159 49.9024C63.4675 50.1126 63.1284 50.2374 62.7986 50.2768C62.4687 50.3162 62.1543 50.2835 61.8554 50.1787C61.5593 50.0723 61.2847 49.9072 61.0318 49.6834C60.7817 49.458 60.5616 49.1878 60.3715 48.8728L60.2908 48.7391C60.1008 48.4241 59.9643 48.1035 59.8814 47.7771C59.8013 47.449 59.7831 47.1292 59.827 46.8176C59.8736 46.5043 59.9912 46.2109 60.1798 45.9374C60.3684 45.6639 60.6354 45.4229 60.981 45.2144C61.3461 44.994 61.7095 44.8717 62.0712 44.8473C62.4357 44.8212 62.7742 44.8907 63.0867 45.0557C63.4019 45.219 63.6683 45.4746 63.8858 45.8224L62.8449 46.4506C62.7418 46.2923 62.6181 46.1693 62.4738 46.0814C62.3295 45.9936 62.1726 45.9477 62.0028 45.9436C61.8331 45.9396 61.6605 45.9906 61.4849 46.0965C61.2981 46.2092 61.1656 46.3424 61.0873 46.4961C61.0118 46.6482 60.9804 46.8135 60.9931 46.9921C61.0069 47.1663 61.0504 47.3454 61.1234 47.5294C61.1976 47.709 61.2893 47.8893 61.3987 48.0705L61.4794 48.2043C61.5904 48.3882 61.7089 48.5562 61.8349 48.7083C61.9637 48.8587 62.1019 48.9806 62.2495 49.074C62.3982 49.163 62.5575 49.2095 62.7272 49.2135C62.8997 49.2158 63.0821 49.159 63.2744 49.0429ZM65.768 42.4395L66.2474 43.2338L63.6554 44.798L63.1761 44.0037L65.768 42.4395ZM63.199 42.4729L64.3068 41.8043L66.9205 46.1354C67.0013 46.2691 67.0816 46.3613 67.1616 46.4119C67.2415 46.4625 67.3253 46.4785 67.4129 46.4599C67.5005 46.4412 67.5945 46.4016 67.6948 46.3411C67.7673 46.2973 67.8316 46.2528 67.8879 46.2074C67.9442 46.1621 67.9907 46.1226 68.0274 46.089L68.5312 46.9142C68.4577 47.0004 68.3683 47.0885 68.263 47.1787C68.1605 47.2671 68.0368 47.3551 67.8919 47.4426C67.6439 47.5923 67.4012 47.6816 67.1641 47.7107C66.9252 47.737 66.697 47.6865 66.4795 47.5592C66.2603 47.4292 66.0557 47.2067 65.8657 46.8917L63.199 42.4729ZM70.9742 43.7803C70.917 43.6855 70.8406 43.6156 70.7451 43.5707C70.6495 43.5257 70.5135 43.5146 70.3372 43.5374C70.1619 43.5557 69.9251 43.6169 69.6267 43.7209C69.3623 43.812 69.1085 43.8797 68.8652 43.9238C68.6219 43.968 68.3972 43.98 68.1911 43.9599C67.9834 43.937 67.7954 43.8775 67.6271 43.7813C67.4599 43.6807 67.3183 43.5342 67.2023 43.3419C67.0896 43.1552 67.024 42.9552 67.0056 42.742C66.9855 42.526 67.0143 42.3091 67.0919 42.0911C67.1678 41.8704 67.294 41.6574 67.4704 41.4521C67.6452 41.2439 67.8705 41.0566 68.1464 40.8901C68.5311 40.658 68.8992 40.5214 69.2508 40.4803C69.6051 40.4375 69.9226 40.4817 70.2032 40.6127C70.4821 40.7409 70.704 40.9416 70.8688 41.2148L69.7652 41.8808C69.6928 41.761 69.5994 41.6691 69.4848 41.6052C69.3729 41.5396 69.2436 41.5112 69.0968 41.5199C68.9483 41.5259 68.7891 41.5802 68.6191 41.6828C68.4658 41.7753 68.3513 41.8786 68.2757 41.9926C68.2029 42.105 68.1644 42.2176 68.1602 42.3304C68.156 42.4432 68.1833 42.5483 68.2422 42.6459C68.2859 42.7184 68.3394 42.7754 68.4026 42.8171C68.4669 42.8544 68.5468 42.8765 68.6423 42.8835C68.7377 42.8905 68.8544 42.8791 68.9922 42.8491C69.1328 42.8175 69.299 42.7685 69.4909 42.7021C69.8685 42.5655 70.2164 42.4773 70.5345 42.4374C70.8537 42.393 71.139 42.4185 71.3905 42.5139C71.642 42.6093 71.8526 42.7977 72.0225 43.0792C72.1436 43.2799 72.2114 43.4899 72.2259 43.7092C72.2388 43.9258 72.2 44.145 72.1095 44.3669C72.0191 44.5888 71.8807 44.8035 71.6942 45.0111C71.506 45.2159 71.2684 45.4049 70.9813 45.5781C70.566 45.8288 70.1703 45.9668 69.7941 45.9923C69.4162 46.0151 69.0845 45.9568 68.7988 45.8174C68.5115 45.6752 68.293 45.4801 68.1433 45.232L69.201 44.5937C69.3153 44.7643 69.4476 44.8764 69.5979 44.9302C69.7483 44.984 69.9032 44.995 70.0628 44.9633C70.2235 44.9272 70.3777 44.8646 70.5254 44.7754C70.6926 44.6745 70.8199 44.5673 70.9073 44.4537C70.9929 44.3374 71.0415 44.2225 71.0529 44.1092C71.0627 43.993 71.0364 43.8834 70.9742 43.7803Z" fill="#111111"/>
</svg>
