<svg width="91" height="73" viewBox="0 0 91 73" fill="none" xmlns="http://www.w3.org/2000/svg">
<path d="M70.0755 63.44C66.1871 76.868 54.3589 62.7768 39.1976 58.3864C24.0362 53.996 -1.05051 57.3973 2.83796 43.9693C6.72643 30.5414 34.9864 5.75831 50.1477 10.1487C65.3091 14.5392 73.964 50.012 70.0755 63.44Z" fill="#D0338A"/>
<path d="M70.0755 63.44C66.1871 76.868 54.3589 62.7768 39.1976 58.3864C24.0362 53.996 -1.05051 57.3973 2.83796 43.9693C6.72643 30.5414 34.9864 5.75831 50.1477 10.1487C65.3091 14.5392 73.964 50.012 70.0755 63.44Z" fill="#D0338A"/>
<path d="M33.6684 27.1083L34.3673 27.3106C34.6143 27.3822 34.8297 27.3988 35.0136 27.3606C35.2016 27.3201 35.3564 27.2361 35.478 27.1087C35.6037 26.979 35.6955 26.8141 35.7534 26.614C35.8105 26.417 35.8238 26.2362 35.7936 26.0716C35.7642 25.9038 35.6874 25.7595 35.5631 25.6388C35.4428 25.5159 35.2701 25.4218 35.0449 25.3566C34.8636 25.3041 34.6859 25.2916 34.5119 25.3191C34.341 25.3476 34.1907 25.4159 34.0611 25.5241C33.9355 25.6301 33.846 25.7753 33.7926 25.9598L32.5497 25.5999C32.6565 25.2309 32.8472 24.9354 33.1216 24.7132C33.4001 24.4889 33.7297 24.3454 34.1105 24.2828C34.4912 24.2202 34.8879 24.2487 35.3007 24.3682C35.7509 24.4986 36.1231 24.6877 36.4174 24.9356C36.7156 25.1812 36.9169 25.4751 37.0212 25.8171C37.1287 26.1599 37.1208 26.544 36.9977 26.9692C36.9388 27.1725 36.8315 27.3617 36.6757 27.5369C36.5239 27.7098 36.3323 27.8509 36.1007 27.96C35.8732 28.067 35.6121 28.132 35.3173 28.1551C35.0266 28.176 34.7108 28.1371 34.37 28.0384L33.4742 27.779L33.6684 27.1083ZM33.3914 28.0651L33.5829 27.4037L34.4787 27.6632C34.8633 27.7745 35.1831 27.9163 35.4383 28.0885C35.6975 28.2584 35.8958 28.4514 36.0331 28.6674C36.1714 28.8803 36.2536 29.1057 36.2796 29.3437C36.3087 29.5826 36.2879 29.8239 36.2173 30.0678C36.1249 30.3868 35.9831 30.6541 35.7919 30.8698C35.6015 31.0824 35.3736 31.2435 35.108 31.353C34.8456 31.4634 34.5575 31.5223 34.2435 31.5296C33.9305 31.5339 33.6067 31.4876 33.2722 31.3907C32.9814 31.3065 32.7097 31.1854 32.4572 31.0276C32.2087 30.8675 31.9981 30.6761 31.8254 30.4532C31.6537 30.2273 31.539 29.9738 31.4814 29.6928C31.4247 29.4086 31.4435 29.104 31.5377 28.7788L32.7805 29.1387C32.7262 29.3263 32.7231 29.5067 32.7712 29.6799C32.8225 29.854 32.9172 30.0069 33.0553 30.1384C33.1975 30.2676 33.3718 30.3622 33.5781 30.4219C33.8064 30.488 34.0136 30.504 34.1997 30.4698C34.3899 30.4333 34.5509 30.3512 34.6828 30.2233C34.8156 30.0923 34.9133 29.919 34.9758 29.7032C35.05 29.4468 35.0618 29.2249 35.011 29.0373C34.9603 28.8498 34.8551 28.6923 34.6954 28.5647C34.539 28.438 34.3372 28.339 34.0902 28.2674L33.3914 28.0651ZM42.3326 29.5766L41.9998 30.7256C41.8477 31.2509 41.6646 31.6842 41.4506 32.0255C41.2365 32.3668 40.995 32.6273 40.7261 32.807C40.4581 32.9836 40.1686 33.0878 39.8577 33.1198C39.5478 33.1487 39.2224 33.1137 38.8816 33.015C38.6095 32.9363 38.3662 32.8285 38.1516 32.6918C37.938 32.552 37.7586 32.3815 37.6135 32.1802C37.4725 31.9767 37.3683 31.7398 37.3008 31.4695C37.2365 31.2 37.215 30.8939 37.2364 30.551C37.2609 30.209 37.3338 29.8286 37.4551 29.4096L37.7878 28.2605C37.94 27.7352 38.1226 27.3035 38.3357 26.9653C38.552 26.628 38.7942 26.3711 39.0622 26.1946C39.3302 26.018 39.6187 25.9169 39.9278 25.8911C40.2378 25.8623 40.5632 25.8972 40.904 25.9959C41.1791 26.0756 41.4225 26.1833 41.6339 26.3191C41.8485 26.4558 42.0268 26.6243 42.1687 26.8247C42.3146 27.0229 42.4198 27.2567 42.4841 27.5261C42.5493 27.7924 42.5697 28.0965 42.5452 28.4385C42.5248 28.7782 42.4539 29.1576 42.3326 29.5766ZM40.7127 30.5359L41.1446 29.0445C41.2207 28.7818 41.2711 28.549 41.296 28.3461C41.3249 28.141 41.3311 27.9615 41.3147 27.8076C41.2983 27.6537 41.2601 27.5224 41.2001 27.4135C41.141 27.3015 41.0626 27.2093 40.965 27.137C40.8673 27.0647 40.7528 27.0095 40.6215 26.9715C40.4589 26.9244 40.304 26.9151 40.1568 26.9436C40.0105 26.969 39.8736 27.0379 39.7463 27.1501C39.6189 27.2623 39.4987 27.4258 39.3857 27.6404C39.2767 27.8529 39.1751 28.1217 39.081 28.4469L38.6491 29.9383C38.573 30.201 38.5205 30.4349 38.4916 30.64C38.4659 30.8461 38.4607 31.0276 38.4763 31.1846C38.4949 31.3425 38.5318 31.4785 38.5868 31.5928C38.6459 31.7048 38.7238 31.7985 38.8206 31.874C38.9182 31.9463 39.0327 32.0015 39.1641 32.0395C39.3298 32.0875 39.4847 32.0968 39.6288 32.0673C39.776 32.0388 39.9137 31.9668 40.042 31.8515C40.1712 31.733 40.2908 31.566 40.4006 31.3504C40.5145 31.1326 40.6186 30.8611 40.7127 30.5359ZM47.7079 31.3772L47.3887 32.4793L42.708 31.1239L43.0272 30.0217L47.7079 31.3772ZM46.5078 28.9912L45.0682 33.9627L43.8816 33.6191L45.3212 28.6476L46.5078 28.9912ZM31.7991 44.0437L33.0888 44.4172C32.9222 44.8638 32.6784 45.232 32.3572 45.522C32.0369 45.8088 31.6523 45.9956 31.2036 46.0826C30.7548 46.1695 30.2521 46.1324 29.6955 45.9712C29.2672 45.8472 28.9027 45.6603 28.6023 45.4106C28.3058 45.1587 28.0764 44.8568 27.914 44.5047C27.7556 44.1505 27.6698 43.7562 27.6566 43.322C27.6443 42.8847 27.7102 42.4174 27.8541 41.9203L28.0049 41.3997C28.1489 40.9025 28.3445 40.4728 28.5917 40.1106C28.8389 39.7484 29.1252 39.462 29.4506 39.2512C29.78 39.0382 30.1388 38.9049 30.5271 38.8512C30.9186 38.7985 31.3285 38.8342 31.7568 38.9583C32.3134 39.1194 32.7541 39.3589 33.0789 39.6766C33.4047 39.9912 33.6222 40.3575 33.7316 40.7756C33.841 41.1936 33.8506 41.6403 33.7604 42.1157L32.4706 41.7422C32.5289 41.4473 32.537 41.1853 32.4949 40.9563C32.4559 40.7281 32.3528 40.5339 32.1857 40.3736C32.0227 40.2112 31.7801 40.0833 31.458 39.9901C31.2079 39.9176 30.9739 39.9007 30.756 39.9393C30.5412 39.9788 30.3441 40.0742 30.1647 40.2256C29.9863 40.3738 29.8255 40.5781 29.6823 40.8382C29.5401 41.0953 29.4165 41.4051 29.3115 41.7678L29.158 42.2978C29.0575 42.6449 28.9955 42.9642 28.9721 43.2556C28.9487 43.5471 28.9688 43.8054 29.0324 44.0305C29.096 44.2556 29.2071 44.4454 29.3657 44.5998C29.5244 44.7542 29.7334 44.8689 29.993 44.9441C30.3088 45.0355 30.5796 45.0598 30.8056 45.0167C31.0347 44.9746 31.2289 44.8716 31.3882 44.7076C31.5507 44.5445 31.6876 44.3232 31.7991 44.0437ZM36.7428 40.1022L34.6567 47.3062L33.4138 46.9463L35.5 39.7423L36.7428 40.1022ZM38.6214 42.954L37.1518 48.0288L35.909 47.6688L37.3785 42.5941L38.6214 42.954ZM37.6784 41.2424C37.7319 41.0579 37.8388 40.9228 37.9991 40.8371C38.1627 40.7523 38.3523 40.7411 38.568 40.8036C38.7838 40.866 38.9365 40.9763 39.0263 41.1345C39.1192 41.2936 39.1389 41.4653 39.0855 41.6498C39.033 41.8312 38.9249 41.9643 38.7614 42.0491C38.6011 42.1348 38.413 42.1464 38.1972 42.084C37.9815 42.0215 37.8272 41.9107 37.7343 41.7516C37.6445 41.5935 37.6259 41.4237 37.6784 41.2424ZM40.586 49.1249C40.2014 49.0135 39.874 48.8509 39.6038 48.6371C39.3336 48.4233 39.1228 48.1742 38.9713 47.8897C38.8239 47.603 38.7353 47.2944 38.7057 46.9638C38.68 46.6311 38.717 46.2927 38.8166 45.9488L38.8709 45.7612C38.9841 45.3703 39.1432 45.0318 39.3481 44.7454C39.5539 44.456 39.7935 44.2254 40.0669 44.0538C40.3402 43.8822 40.6389 43.7755 40.9627 43.7337C41.2866 43.6919 41.6221 43.7213 41.9692 43.8218C42.3287 43.9259 42.6284 44.0788 42.8683 44.2804C43.109 44.4789 43.2899 44.7143 43.411 44.9866C43.5321 45.2589 43.5952 45.5619 43.6003 45.8954C43.6063 46.2259 43.5558 46.5756 43.449 46.9446L43.2982 47.4652L39.321 46.3134L39.5682 45.4598L42.326 46.2584L42.3532 46.1646C42.4039 45.9658 42.4185 45.7752 42.3968 45.5927C42.376 45.407 42.3077 45.2449 42.1919 45.1064C42.0771 44.9646 41.9055 44.8607 41.6773 44.7947C41.4928 44.7412 41.32 44.7352 41.1589 44.7767C41.0018 44.8159 40.8566 44.8959 40.7234 45.0166C40.5942 45.1351 40.4787 45.288 40.377 45.4755C40.2753 45.6629 40.1891 45.8786 40.1185 46.1225L40.0642 46.3101C40.0026 46.5227 39.9737 46.7278 39.9775 46.9255C39.9844 47.124 40.0246 47.3068 40.0982 47.4739C40.1759 47.6387 40.2836 47.7817 40.4213 47.9029C40.5631 48.0219 40.7372 48.1113 40.9435 48.1711C41.2031 48.2462 41.452 48.2641 41.6905 48.2247C41.933 48.1831 42.1614 48.0849 42.3757 47.93L42.812 48.7579C42.6605 48.8835 42.4732 48.9919 42.2502 49.0832C42.0303 49.1754 41.7806 49.2302 41.5011 49.2475C41.2225 49.2617 40.9174 49.2209 40.586 49.1249ZM45.8728 46.2282L44.717 50.2195L43.4788 49.8609L44.9484 44.7862L46.1115 45.123L45.8728 46.2282ZM45.3078 47.4422L44.9419 47.3362C45.0519 46.9682 45.1988 46.6481 45.3827 46.376C45.5665 46.1039 45.7772 45.8853 46.0148 45.7203C46.2555 45.5562 46.5145 45.4516 46.7919 45.4065C47.0693 45.3614 47.3581 45.3824 47.6583 45.4693C47.9022 45.5399 48.1126 45.6381 48.2897 45.764C48.4668 45.8898 48.6039 46.0481 48.7012 46.239C48.8015 46.4307 48.8539 46.6594 48.8583 46.925C48.8668 47.1884 48.8199 47.4967 48.7175 47.8501L47.775 51.105L46.5274 50.7437L47.4727 47.4794C47.5397 47.248 47.5583 47.0552 47.5284 46.9008C47.5017 46.7473 47.4324 46.6239 47.3205 46.5305C47.2117 46.438 47.0651 46.365 46.8806 46.3116C46.6899 46.2564 46.5113 46.247 46.3448 46.2835C46.1824 46.3178 46.0332 46.3882 45.8973 46.4945C45.7646 46.6018 45.6479 46.7358 45.5471 46.8964C45.4464 47.057 45.3666 47.2389 45.3078 47.4422ZM52.7386 47.0421L52.4806 47.9332L49.5727 47.0912L49.8308 46.2001L52.7386 47.0421ZM50.9706 45.1779L52.2135 45.5379L50.8064 50.3968C50.763 50.5469 50.7498 50.6685 50.7669 50.7615C50.784 50.8546 50.8291 50.927 50.9023 50.9787C50.9754 51.0304 51.0683 51.0725 51.1808 51.1051C51.2621 51.1286 51.3385 51.1457 51.41 51.1562C51.4815 51.1668 51.5421 51.1741 51.5917 51.1783L51.3275 52.1083C51.2143 52.1128 51.0889 52.107 50.9513 52.0909C50.8168 52.0756 50.6682 52.0445 50.5056 51.9974C50.2273 51.9168 49.997 51.7993 49.8147 51.6448C49.6333 51.4872 49.5155 51.2854 49.4614 51.0393C49.4082 50.79 49.4327 50.4887 49.535 50.1354L50.9706 45.1779ZM55.2872 51.7757C55.318 51.6694 55.3175 51.5659 55.2856 51.4652C55.2538 51.3644 55.1697 51.2571 55.0333 51.143C54.9009 51.0267 54.6952 50.8943 54.4163 50.7457C54.1699 50.6134 53.948 50.4729 53.7504 50.3242C53.5529 50.1755 53.3916 50.0186 53.2665 49.8536C53.1424 49.6855 53.0585 49.507 53.0149 49.3182C52.9753 49.1271 52.9868 48.9237 53.0493 48.7079C53.1099 48.4984 53.2123 48.3146 53.3564 48.1564C53.5014 47.995 53.6803 47.8689 53.893 47.778C54.1066 47.684 54.3487 47.6321 54.6193 47.6223C54.8907 47.6094 55.1812 47.6478 55.4908 47.7374C55.9223 47.8624 56.2724 48.04 56.5412 48.2704C56.8131 48.5016 56.9962 48.7647 57.0904 49.0597C57.1855 49.3516 57.1887 49.6508 57.0999 49.9572L55.8617 49.5986C55.9007 49.4642 55.9047 49.3332 55.8739 49.2056C55.8462 49.079 55.7793 48.9647 55.6732 48.8628C55.5681 48.7578 55.4201 48.6777 55.2294 48.6225C55.0574 48.5727 54.9039 48.5587 54.7688 48.5806C54.6368 48.6034 54.5279 48.6515 54.4423 48.725C54.3566 48.7985 54.2979 48.8899 54.2662 48.9993C54.2427 49.0806 54.2371 49.1586 54.2493 49.2334C54.2656 49.3059 54.3036 49.3795 54.3632 49.4544C54.4229 49.5293 54.5104 49.6072 54.626 49.6881C54.7446 49.7699 54.8934 49.8588 55.0724 49.9546C55.429 50.1392 55.7299 50.3348 55.9751 50.5414C56.2243 50.7457 56.3992 50.9726 56.4998 51.222C56.6004 51.4714 56.605 51.754 56.5136 52.0698C56.4484 52.295 56.3401 52.4873 56.1889 52.6468C56.0385 52.8032 55.8512 52.9235 55.6269 53.0077C55.4026 53.0918 55.1509 53.1359 54.8719 53.1398C54.5937 53.1406 54.2937 53.0944 53.9716 53.0011C53.5057 52.8662 53.1357 52.6692 52.8617 52.4103C52.5885 52.1482 52.4062 51.8649 52.3147 51.5605C52.2242 51.253 52.2192 50.9601 52.2997 50.6818L53.4864 51.0255C53.4387 51.2252 53.4461 51.3985 53.5086 51.5453C53.5712 51.6922 53.6682 51.8135 53.7998 51.9092C53.9354 52.0027 54.086 52.0735 54.2517 52.1214C54.4393 52.1758 54.6045 52.1965 54.7472 52.1836C54.8908 52.1675 55.0081 52.1253 55.0991 52.0567C55.191 51.9851 55.2537 51.8914 55.2872 51.7757Z" fill="#111111"/>
</svg>
