<svg width="26" height="26" viewBox="0 0 26 26" fill="none" xmlns="http://www.w3.org/2000/svg">
<rect width="26" height="26" rx="13" fill="white"/>
<rect width="26" height="26" rx="13" stroke="#E5E7EB"/>
<rect x="3" y="3" width="20" height="20" rx="10" fill="url(#paint0_linear_1_62)"/>
<path d="M12.5 7.25C11.6792 7.25 10.8665 7.41166 10.1082 7.72575C9.34994 8.03984 8.66095 8.50022 8.08058 9.08058C6.90848 10.2527 6.25 11.8424 6.25 13.5C6.25 16.2625 8.04375 18.6062 10.525 19.4375C10.8375 19.4875 10.9375 19.2937 10.9375 19.125V18.0687C9.20625 18.4437 8.8375 17.2312 8.8375 17.2312C8.55 16.5062 8.14375 16.3125 8.14375 16.3125C7.575 15.925 8.1875 15.9375 8.1875 15.9375C8.8125 15.9812 9.14375 16.5813 9.14375 16.5813C9.6875 17.5312 10.6062 17.25 10.9625 17.1C11.0188 16.6938 11.1813 16.4187 11.3562 16.2625C9.96875 16.1062 8.5125 15.5688 8.5125 13.1875C8.5125 12.4938 8.75 11.9375 9.15625 11.4938C9.09375 11.3375 8.875 10.6875 9.21875 9.84375C9.21875 9.84375 9.74375 9.675 10.9375 10.4813C11.4313 10.3438 11.9688 10.275 12.5 10.275C13.0312 10.275 13.5687 10.3438 14.0625 10.4813C15.2563 9.675 15.7812 9.84375 15.7812 9.84375C16.125 10.6875 15.9062 11.3375 15.8438 11.4938C16.25 11.9375 16.4875 12.4938 16.4875 13.1875C16.4875 15.575 15.025 16.1 13.6313 16.2563C13.8563 16.45 14.0625 16.8313 14.0625 17.4125V19.125C14.0625 19.2937 14.1625 19.4937 14.4812 19.4375C16.9625 18.6 18.75 16.2625 18.75 13.5C18.75 12.6792 18.5883 11.8665 18.2742 11.1082C17.9602 10.3499 17.4998 9.66095 16.9194 9.08058C16.3391 8.50022 15.6501 8.03984 14.8918 7.72575C14.1335 7.41166 13.3208 7.25 12.5 7.25Z" fill="#F0F8FF"/>
<defs>
<linearGradient id="paint0_linear_1_62" x1="-7" y1="3" x2="-7" y2="23" gradientUnits="userSpaceOnUse">
<stop stop-color="#B94A5B"/>
<stop offset="0.333333" stop-color="#6A4FFF"/>
<stop offset="0.666667" stop-color="#6A4FFF"/>
</linearGradient>
</defs>
</svg>
