<svg width="26" height="26" viewBox="0 0 26 26" fill="none" xmlns="http://www.w3.org/2000/svg">
<rect width="26" height="26" rx="13" fill="white"/>
<rect width="26" height="26" rx="13" stroke="#E5E7EB"/>
<rect x="3" y="3" width="20" height="20" rx="10" fill="url(#paint0_linear_1_310)"/>
<path d="M17.875 7.875C18.2065 7.875 18.5245 8.0067 18.7589 8.24112C18.9933 8.47554 19.125 8.79348 19.125 9.125V17.875C19.125 18.2065 18.9933 18.5245 18.7589 18.7589C18.5245 18.9933 18.2065 19.125 17.875 19.125H9.125C8.79348 19.125 8.47554 18.9933 8.24112 18.7589C8.0067 18.5245 7.875 18.2065 7.875 17.875V9.125C7.875 8.79348 8.0067 8.47554 8.24112 8.24112C8.47554 8.0067 8.79348 7.875 9.125 7.875H17.875ZM17.5625 17.5625V14.25C17.5625 13.7096 17.3478 13.1914 16.9657 12.8093C16.5836 12.4272 16.0654 12.2125 15.525 12.2125C14.9937 12.2125 14.375 12.5375 14.075 13.025V12.3313H12.3313V17.5625H14.075V14.4812C14.075 14 14.4625 13.6062 14.9438 13.6062C15.1758 13.6062 15.3984 13.6984 15.5625 13.8625C15.7266 14.0266 15.8187 14.2492 15.8187 14.4812V17.5625H17.5625ZM10.3 11.35C10.5785 11.35 10.8455 11.2394 11.0425 11.0425C11.2394 10.8455 11.35 10.5785 11.35 10.3C11.35 9.71875 10.8813 9.24375 10.3 9.24375C10.0199 9.24375 9.7512 9.35503 9.55312 9.55312C9.35503 9.7512 9.24375 10.0199 9.24375 10.3C9.24375 10.8813 9.71875 11.35 10.3 11.35ZM11.1688 17.5625V12.3313H9.4375V17.5625H11.1688Z" fill="#F0F8FF"/>
<defs>
<linearGradient id="paint0_linear_1_310" x1="-7" y1="3" x2="-7" y2="23" gradientUnits="userSpaceOnUse">
<stop stop-color="#B94A5B"/>
<stop offset="0.333333" stop-color="#6A4FFF"/>
<stop offset="0.666667" stop-color="#6A4FFF"/>
</linearGradient>
</defs>
</svg>
