<svg width="37" height="37" viewBox="0 0 37 37" fill="none" xmlns="http://www.w3.org/2000/svg">
<path d="M24.3201 4.82031C23.5244 4.82031 22.7614 5.13638 22.1987 5.69899C21.6361 6.2616 21.3201 7.02466 21.3201 7.82031V16.8203C21.3201 17.616 21.6361 18.379 22.1987 18.9416C22.7614 19.5042 23.5244 19.8203 24.3201 19.8203C24.7179 19.8203 25.0994 19.9783 25.3807 20.2597C25.662 20.541 25.8201 20.9225 25.8201 21.3203V22.8203C25.8201 23.616 25.504 24.379 24.9414 24.9416C24.3788 25.5042 23.6157 25.8203 22.8201 25.8203C22.4222 25.8203 22.0407 25.9783 21.7594 26.2597C21.4781 26.541 21.3201 26.9225 21.3201 27.3203V30.3203C21.3201 30.7181 21.4781 31.0997 21.7594 31.381C22.0407 31.6623 22.4222 31.8203 22.8201 31.8203C25.207 31.8203 27.4962 30.8721 29.184 29.1843C30.8719 27.4964 31.8201 25.2073 31.8201 22.8203V7.82031C31.8201 7.02466 31.504 6.2616 30.9414 5.69899C30.3788 5.13638 29.6157 4.82031 28.8201 4.82031H24.3201Z" stroke="#F94A5B" stroke-opacity="0.3" stroke-width="3" stroke-linecap="round" stroke-linejoin="round"/>
<path d="M7.82007 4.82031C7.02442 4.82031 6.26136 5.13638 5.69875 5.69899C5.13614 6.2616 4.82007 7.02466 4.82007 7.82031V16.8203C4.82007 17.616 5.13614 18.379 5.69875 18.9416C6.26136 19.5042 7.02442 19.8203 7.82007 19.8203C8.21789 19.8203 8.59942 19.9783 8.88073 20.2597C9.16203 20.541 9.32007 20.9225 9.32007 21.3203V22.8203C9.32007 23.616 9.004 24.379 8.44139 24.9416C7.87878 25.5042 7.11572 25.8203 6.32007 25.8203C5.92224 25.8203 5.54071 25.9783 5.25941 26.2597C4.9781 26.541 4.82007 26.9225 4.82007 27.3203V30.3203C4.82007 30.7181 4.9781 31.0997 5.25941 31.381C5.54071 31.6623 5.92224 31.8203 6.32007 31.8203C8.70702 31.8203 10.9962 30.8721 12.684 29.1843C14.3719 27.4964 15.3201 25.2073 15.3201 22.8203V7.82031C15.3201 7.02466 15.004 6.2616 14.4414 5.69899C13.8788 5.13638 13.1157 4.82031 12.3201 4.82031H7.82007Z" stroke="#F94A5B" stroke-opacity="0.3" stroke-width="3" stroke-linecap="round" stroke-linejoin="round"/>
</svg>
