<svg width="63" height="34" viewBox="0 0 63 34" fill="none" xmlns="http://www.w3.org/2000/svg">
<mask id="mask0_1_492" style="mask-type:luminance" maskUnits="userSpaceOnUse" x="0" y="0" width="63" height="34">
<path d="M0.885803 17C0.885803 25.8992 14.5925 33.1136 31.4999 33.1136C48.4073 33.1136 62.1142 25.8992 62.1142 17C62.1142 8.10086 48.4073 0.886341 31.4999 0.886341C14.5925 0.886341 0.885803 8.10086 0.885803 17Z" fill="white"/>
</mask>
<g mask="url(#mask0_1_492)">
<path d="M0.885803 17C0.885803 25.8992 14.5925 33.1136 31.4999 33.1136C48.4073 33.1136 62.1142 25.8992 62.1142 17C62.1142 8.10086 48.4073 0.886341 31.4999 0.886341C14.5925 0.886341 0.885803 8.10086 0.885803 17Z" fill="url(#paint0_radial_1_492)"/>
</g>
<mask id="mask1_1_492" style="mask-type:luminance" maskUnits="userSpaceOnUse" x="-1" y="-1" width="65" height="36">
<path d="M-0.389771 -0.948513H63.3897V34.9485H-0.389771V-0.948513Z" fill="white"/>
</mask>
<g mask="url(#mask1_1_492)">
<path d="M31.5 31.9172C47.747 31.9172 60.9182 25.2385 60.9182 16.9999C60.9182 8.76145 47.747 2.08262 31.5 2.08262C15.2529 2.08262 2.0817 8.76145 2.0817 16.9999C2.0817 25.2385 15.2529 31.9172 31.5 31.9172Z" fill="#777BB3"/>
</g>
<mask id="mask2_1_492" style="mask-type:luminance" maskUnits="userSpaceOnUse" x="-1" y="-1" width="65" height="36">
<path d="M-0.389771 -0.948513H63.3897V34.9485H-0.389771V-0.948513Z" fill="white"/>
</mask>
<g mask="url(#mask2_1_492)">
<path d="M17.5188 18.8496C18.8547 18.8496 19.852 18.6031 20.4831 18.1171C21.1074 17.6362 21.5385 16.8029 21.7645 15.6406C21.9752 14.5541 21.895 13.7955 21.526 13.3862C21.1488 12.968 20.3331 12.756 19.1018 12.756H16.9669L15.7833 18.8496H17.5188ZM10.5359 26.3558C10.4368 26.3558 10.3427 26.3115 10.2797 26.2348C10.2166 26.1583 10.191 26.0575 10.2099 25.9601L13.3466 9.81186C13.377 9.65575 13.5137 9.54296 13.6727 9.54296H20.4331C22.5578 9.54296 24.1392 10.1202 25.1332 11.2588C26.1325 12.4034 26.4411 14.0034 26.0504 16.0142C25.8914 16.8334 25.6179 17.5942 25.2375 18.2754C24.8567 18.9573 24.3535 19.5883 23.7415 20.1511C23.0089 20.8371 22.1798 21.3346 21.2793 21.6273C20.3932 21.9161 19.2551 22.0626 17.8968 22.0626H15.1594L14.3776 26.0868C14.3473 26.243 14.2107 26.3558 14.0516 26.3558H10.5359Z" fill="black"/>
<path d="M17.2408 13.0882H19.1019C20.588 13.0882 21.1042 13.4145 21.2796 13.609C21.5706 13.9318 21.6255 14.6125 21.4385 15.5774C21.2283 16.6577 20.8388 17.4236 20.2805 17.8537C19.7089 18.294 18.7797 18.5171 17.5188 18.5171H16.1863L17.2408 13.0882ZM20.4332 9.21048H13.6726C13.3546 9.21048 13.0812 9.43606 13.0206 9.74838L9.88386 25.8966C9.84599 26.0915 9.89715 26.293 10.0233 26.4462C10.1495 26.5995 10.3375 26.6881 10.5359 26.6881H14.0516C14.3697 26.6881 14.6431 26.4625 14.7037 26.1502L15.4332 22.3949H17.8968C19.29 22.3949 20.4628 22.2429 21.3824 21.9432C22.3282 21.6357 23.1983 21.1144 23.9684 20.3938C24.6053 19.8075 25.1299 19.1494 25.5274 18.4376C25.9251 17.7255 26.2107 16.9314 26.3765 16.0774C26.7878 13.9609 26.4537 12.2659 25.3834 11.0401C24.3235 9.82605 22.6579 9.21048 20.4332 9.21048ZM15.3803 19.1819H17.5188C18.9362 19.1819 19.992 18.9147 20.6857 18.3804C21.3795 17.8459 21.8475 16.9539 22.0906 15.704C22.3233 14.5038 22.2173 13.6569 21.7727 13.1636C21.3276 12.6702 20.4375 12.4235 19.1019 12.4235H16.6931L15.3803 19.1819ZM20.4332 9.87524C22.4669 9.87524 23.9505 10.4093 24.8831 11.4774C25.8155 12.5456 26.0963 14.0365 25.7243 15.9507C25.5712 16.7392 25.3122 17.4601 24.9475 18.1133C24.5825 18.7668 24.1058 19.3645 23.5167 19.9063C22.8147 20.5637 22.0348 21.0321 21.1767 21.3111C20.3186 21.5908 19.2256 21.7301 17.8968 21.7301H14.8855L14.0516 26.0234H10.5359L13.6726 9.87524H20.4332Z" fill="white"/>
<path d="M34.1112 22.0625C34.012 22.0625 33.918 22.0182 33.855 21.9415C33.7918 21.865 33.7662 21.7642 33.7851 21.6667L35.1727 14.5218C35.3047 13.8423 35.2721 13.3546 35.0811 13.1485C34.9642 13.0225 34.6129 12.8113 33.5744 12.8113H31.0607L29.3162 21.7935C29.2858 21.9497 29.1491 22.0625 28.9901 22.0625H25.5021C25.4029 22.0625 25.3089 22.0182 25.2458 21.9415C25.1827 21.865 25.1571 21.7641 25.176 21.6667L28.3127 5.51853C28.3431 5.36242 28.4798 5.24963 28.6388 5.24963H32.1268C32.226 5.24963 32.32 5.29395 32.3831 5.37051C32.4462 5.44717 32.4718 5.54789 32.4529 5.64538L31.6959 9.54287H34.4001C36.4602 9.54287 37.8572 9.90627 38.6708 10.6539C39.5002 11.4166 39.7589 12.6361 39.44 14.2789L37.9806 21.7935C37.9503 21.9497 37.8137 22.0625 37.6545 22.0625H34.1112Z" fill="black"/>
<path d="M32.1268 4.91727H28.6388C28.3207 4.91727 28.0473 5.14284 27.9866 5.45517L24.8499 21.6034C24.8121 21.7983 24.8632 21.9998 24.9894 22.153C25.1157 22.3063 25.3037 22.3949 25.5021 22.3949H28.9901C29.3081 22.3949 29.5816 22.1693 29.6422 21.857L31.3345 13.1437H33.5744C34.6112 13.1437 34.8287 13.3653 34.8375 13.3748C34.9004 13.4425 34.9831 13.756 34.8466 14.4584L33.459 21.6034C33.4212 21.7983 33.4723 21.9998 33.5986 22.153C33.7248 22.3063 33.9128 22.3949 34.1112 22.3949H37.6545C37.9725 22.3949 38.246 22.1693 38.3067 21.857L39.766 14.3424C40.1085 12.5785 39.8155 11.2553 38.8956 10.4093C38.0177 9.6026 36.5472 9.21051 34.4001 9.21051H32.0987L32.7789 5.70889C32.8167 5.514 32.7657 5.31236 32.6394 5.15924C32.5132 5.00601 32.3252 4.91727 32.1268 4.91727ZM32.1268 5.58203L31.2929 9.87527H34.4001C36.3552 9.87527 37.7038 10.2167 38.446 10.8988C39.1882 11.5813 39.4106 12.6871 39.1139 14.2157L37.6545 21.7301H34.1112L35.4988 14.5853C35.6567 13.7725 35.5986 13.2181 35.3245 12.9225C35.0502 12.6269 34.4668 12.4789 33.5744 12.4789H30.7867L28.9901 21.7301H25.5021L28.6388 5.58203H32.1268Z" fill="white"/>
<path d="M44.9589 18.8496C46.2948 18.8496 47.2922 18.6031 47.9232 18.1171C48.5475 17.6363 48.9787 16.803 49.2048 15.6406C49.4155 14.5541 49.3352 13.7955 48.9662 13.3862C48.5889 12.968 47.7733 12.756 46.542 12.756H44.407L43.2235 18.8496H44.9589ZM37.9762 26.3558C37.8771 26.3558 37.783 26.3115 37.7199 26.2348C37.6568 26.1583 37.6311 26.0575 37.6501 25.9601L40.7868 9.81186C40.8172 9.65575 40.9539 9.54296 41.113 9.54296H47.8733C49.998 9.54296 51.5793 10.1202 52.5735 11.2588C53.5728 12.4033 53.8813 14.0033 53.4906 16.0142C53.3314 16.8334 53.058 17.5942 52.6777 18.2754C52.2969 18.9573 51.7936 19.5883 51.1816 20.1511C50.449 20.8371 49.6199 21.3346 48.7195 21.6273C47.8333 21.9161 46.6952 22.0626 45.3369 22.0626H42.5994L41.818 26.0868C41.7875 26.243 41.6509 26.3558 41.4918 26.3558H37.9762Z" fill="black"/>
<path d="M44.6809 13.0882H46.542C48.0281 13.0882 48.5443 13.4145 48.7197 13.609C49.0108 13.9318 49.0657 14.6125 48.8786 15.5773C48.6684 16.6577 48.2788 17.4236 47.7206 17.8537C47.149 18.294 46.2198 18.5171 44.9589 18.5171H43.6265L44.6809 13.0882ZM47.8733 9.21048H41.1129C40.7949 9.21048 40.5215 9.43606 40.4608 9.74838L37.3241 25.8966C37.2862 26.0915 37.3374 26.293 37.4635 26.4462C37.5897 26.5995 37.7778 26.6881 37.9762 26.6881H41.4918C41.8098 26.6881 42.0833 26.4625 42.144 26.1502L42.8734 22.3949H45.337C46.7301 22.3949 47.903 22.2429 48.8226 21.9432C49.7683 21.6357 50.6386 21.1143 51.4087 20.3936C52.0456 19.8074 52.57 19.1494 52.9676 18.4376C53.3652 17.7255 53.6509 16.9314 53.8166 16.0774C54.228 13.9607 53.8938 12.2658 52.8235 11.04C51.7636 9.82605 50.0982 9.21048 47.8733 9.21048ZM42.8205 19.1819H44.9589C46.3764 19.1819 47.4321 18.9147 48.1259 18.3804C48.8198 17.8459 49.2876 16.9539 49.5308 15.704C49.7635 14.5038 49.6576 13.6569 49.2129 13.1636C48.7678 12.6702 47.8776 12.4235 46.542 12.4235H44.1332L42.8205 19.1819ZM47.8733 9.87524C49.907 9.87524 51.3907 10.4093 52.3232 11.4774C53.2558 12.5456 53.5365 14.0365 53.1644 15.9507C53.0113 16.7392 52.7523 17.4601 52.3877 18.1133C52.0226 18.7668 51.5459 19.3645 50.9568 19.9063C50.2548 20.5637 49.475 21.0321 48.6168 21.3111C47.7587 21.5908 46.6657 21.7301 45.337 21.7301H42.3256L41.4918 26.0234H37.9762L41.1129 9.87524H47.8733Z" fill="white"/>
</g>
<defs>
<radialGradient id="paint0_radial_1_492" cx="0" cy="0" r="1" gradientUnits="userSpaceOnUse" gradientTransform="translate(19.2667 6.5514) scale(40.2007 40.2243)">
<stop stop-color="#AEB2D5"/>
<stop offset="0.3" stop-color="#AEB2D5"/>
<stop offset="0.75" stop-color="#484C89"/>
<stop offset="1" stop-color="#484C89"/>
</radialGradient>
</defs>
</svg>
