<svg width="26" height="26" viewBox="0 0 26 26" fill="none" xmlns="http://www.w3.org/2000/svg">
<rect width="26" height="26" rx="13" fill="white"/>
<rect width="26" height="26" rx="13" stroke="#E5E7EB"/>
<rect x="3" y="3" width="20" height="20" rx="10" fill="url(#paint0_linear_1_78)"/>
<path d="M18.8141 7.18253C18.1229 6.48812 17.2998 5.93751 16.3926 5.56281C15.4854 5.18811 14.5124 4.9968 13.5301 5.00004C9.41457 5.00004 6.0603 8.33753 6.0603 12.4325C6.0603 13.745 6.40704 15.02 7.05528 16.145L6 20L9.95729 18.965C11.0503 19.5575 12.2789 19.8725 13.5301 19.8725C17.6457 19.8725 21 16.535 21 12.44C21 10.4525 20.2236 8.58503 18.8141 7.18253ZM13.5301 18.6125C12.4146 18.6125 11.3216 18.3125 10.3643 17.75L10.1382 17.615L7.78643 18.23L8.41206 15.95L8.26131 15.7175C7.64137 14.7328 7.31225 13.5945 7.31156 12.4325C7.31156 9.02753 10.1005 6.25254 13.5226 6.25254C15.1809 6.25254 16.7412 6.89754 17.9095 8.06753C18.4882 8.64043 18.9467 9.32194 19.2585 10.0725C19.5703 10.8231 19.7293 11.6278 19.7261 12.44C19.7412 15.845 16.9523 18.6125 13.5301 18.6125ZM16.9372 13.9925C16.7487 13.9025 15.8291 13.4525 15.6633 13.385C15.4899 13.325 15.3693 13.295 15.2412 13.475C15.1131 13.6625 14.7588 14.0825 14.6533 14.2025C14.5477 14.33 14.4347 14.345 14.2462 14.2475C14.0578 14.1575 13.4548 13.955 12.7462 13.325C12.1884 12.83 11.8191 12.2225 11.706 12.035C11.6005 11.8475 11.691 11.75 11.7889 11.6525C11.8719 11.57 11.9774 11.435 12.0678 11.33C12.1583 11.225 12.196 11.1425 12.2563 11.0225C12.3166 10.895 12.2864 10.79 12.2412 10.7C12.196 10.61 11.8191 9.69503 11.6683 9.32003C11.5176 8.96003 11.3593 9.00503 11.2462 8.99753H10.8844C10.7563 8.99753 10.5603 9.04253 10.3869 9.23003C10.2211 9.41753 9.73869 9.86753 9.73869 10.7825C9.73869 11.6975 10.4095 12.5825 10.5 12.7025C10.5905 12.83 11.8191 14.705 13.6884 15.5075C14.1332 15.7025 14.4799 15.815 14.7513 15.8975C15.196 16.04 15.603 16.0175 15.9271 15.9725C16.2889 15.92 17.0352 15.5225 17.1859 15.0875C17.3442 14.6525 17.3442 14.285 17.2915 14.2025C17.2387 14.12 17.1256 14.0825 16.9372 13.9925Z" fill="white"/>
<defs>
<linearGradient id="paint0_linear_1_78" x1="-7" y1="3" x2="-7" y2="23" gradientUnits="userSpaceOnUse">
<stop stop-color="#B94A5B"/>
<stop offset="0.333333" stop-color="#6A4FFF"/>
<stop offset="0.666667" stop-color="#6A4FFF"/>
</linearGradient>
</defs>
</svg>
